<svg xmlns="http://www.w3.org/2000/svg" viewBox="0 0 941.96 357.58"><defs><style>.cls-1,.cls-2{opacity:0.86;}</style></defs><g id="Layer_2" data-name="Layer 2"><g id="Layer_1-2" data-name="Layer 1"><g id="d_1" class="cls-1"><path d="M783.84,51.08v84.07a119.19,119.19,0,1,0-61.9,222.39c.77,0,1.54,0,2.31,0l1.61,0A118.57,118.57,0,0,0,794,335c10.7,13.6,28.85,22.55,49.43,22.55V0C810.53,0,783.84,22.87,783.84,51.08ZM724.25,298a59.6,59.6,0,0,1-1.73-119.17c.57,0,1.15,0,1.73,0s1.16,0,1.73,0A59.6,59.6,0,0,1,724.25,298Z"/></g><g id="u" class="cls-1"><path d="M566.14,119.53V357.58c-21.95,0-41.13-6.77-51.47-16.86a32.7,32.7,0,0,1-2.43-2.61,118.71,118.71,0,0,1-62,19.4H450l-1.49,0-1.52,0-1.51,0-1.49,0h-.3a118.66,118.66,0,0,1-62-19.41c-.82-.53-1.62-1.07-2.42-1.63a119,119,0,0,1-51.47-98.09V119.53c23.65,0,44.09,7.86,53.72,19.26a26.14,26.14,0,0,1,4.35,7.07,20.3,20.3,0,0,1,1.53,7.67v84.85a59.6,59.6,0,1,0,119.19,0V153.53c0-5.27,2.1-10.28,5.87-14.74h0C522.05,127.39,542.49,119.53,566.14,119.53Z"/></g><path id="l" class="cls-2" d="M942,0V357.58c-32.92,0-59.6-22.87-59.6-51.09V51.08C882.36,22.87,909,0,942,0Z"/><path d="M288.83,0V357.58c-32.91,0-59.6-22.87-59.6-51.09v-97.9H110v149c-32.91,0-59.6-22.87-59.6-51.09v-97.9H41.26C18.48,208.59,0,181.9,0,149H50.44V51.08C50.44,22.87,77.13,0,110,0V149H229.23V51.08C229.23,22.87,255.92,0,288.83,0Z"/></g></g></svg>